<?xml version="1.0" standalone="no"?>
<!DOCTYPE svg PUBLIC "-//W3C//DTD SVG 20010904//EN"
 "http://www.w3.org/TR/2001/REC-SVG-20010904/DTD/svg10.dtd">
<svg version="1.0" xmlns="http://www.w3.org/2000/svg"
 width="1024.000000pt" height="1024.000000pt" viewBox="0 0 1024.000000 1024.000000"
 preserveAspectRatio="xMidYMid meet">

<g transform="translate(0.000000,1024.000000) scale(0.100000,-0.100000)"
fill="#000000" stroke="none">
<path d="M3204 8801 c-45 -28 -120 -117 -158 -191 -121 -231 -139 -600 -39
-794 27 -52 -8 -24 -69 54 -127 164 -178 336 -178 596 0 110 -8 125 -43 86
-56 -61 -92 -229 -84 -391 7 -171 48 -287 147 -421 89 -119 169 -180 358 -271
131 -62 247 -100 442 -143 356 -79 520 -155 679 -314 66 -67 151 -178 163
-213 2 -6 40 13 88 45 61 41 111 65 184 88 56 17 103 33 105 35 3 2 -17 23
-45 47 -143 125 -181 414 -98 736 29 114 30 136 5 150 -27 14 -45 5 -84 -43
-86 -106 -130 -239 -153 -470 l-5 -57 -62 47 c-172 134 -281 292 -311 452 -9
46 -18 87 -22 92 -3 5 -20 9 -39 9 -28 0 -35 -5 -44 -31 -16 -47 -13 -167 5
-230 18 -61 50 -126 89 -183 14 -21 24 -40 22 -42 -8 -8 -143 39 -193 67 -55
31 -152 127 -176 174 -49 95 -66 297 -39 437 8 40 37 116 72 188 64 133 71
160 39 160 -59 0 -170 -111 -224 -223 -92 -190 -114 -453 -51 -604 8 -20 13
-38 10 -41 -6 -6 -142 55 -177 80 -38 27 -109 121 -146 194 -52 102 -65 172
-65 329 0 125 3 153 32 259 17 65 53 165 80 223 60 129 57 158 -15 114z"/>
<path d="M6775 8778 c4 -13 24 -54 45 -93 77 -143 113 -301 111 -494 -1 -219
-42 -333 -160 -449 -61 -60 -163 -120 -234 -137 l-26 -7 19 37 c71 139 62 425
-19 586 -65 130 -168 229 -238 229 -18 0 -33 -4 -33 -10 0 -5 22 -49 50 -96
156 -273 147 -561 -22 -741 -54 -57 -107 -85 -232 -127 -104 -35 -114 -32 -76
24 16 25 42 74 57 110 23 55 27 80 27 167 1 114 -11 139 -68 145 -30 3 -30 3
-46 -79 -30 -145 -85 -247 -192 -354 -56 -56 -174 -139 -197 -139 -5 0 -11 28
-14 63 -18 184 -174 487 -252 487 -35 0 -37 -32 -8 -129 14 -47 31 -108 39
-136 34 -118 28 -323 -13 -444 -22 -64 -86 -152 -139 -190 -24 -18 -44 -36
-44 -40 0 -4 33 -18 72 -30 108 -35 207 -83 256 -124 24 -21 46 -37 48 -37 2
0 10 15 17 33 23 54 101 170 143 210 59 59 153 123 235 161 69 33 277 98 358
112 20 3 117 26 216 50 534 132 760 274 891 560 56 123 67 186 61 359 -5 174
-28 269 -74 305 -38 29 -43 15 -43 -123 0 -231 -57 -409 -176 -554 -60 -74
-91 -99 -81 -66 3 10 15 43 26 74 32 90 44 192 38 329 -10 223 -77 386 -216
528 -40 40 -59 52 -82 52 -27 0 -30 -3 -24 -22z"/>
<path d="M3436 7134 c-11 -29 -6 -144 10 -222 62 -307 236 -524 511 -638 l51
-22 7 36 c17 89 59 155 151 238 49 43 104 90 122 102 47 34 44 73 -11 148
-154 207 -411 339 -702 358 -55 4 -107 9 -116 12 -9 3 -19 -3 -23 -12z m202
-181 c-9 -2 -19 -16 -21 -31 -4 -24 -4 -24 -6 6 -1 27 2 32 22 31 15 -1 17 -3
5 -6z"/>
<path d="M6399 7139 c-180 -19 -357 -71 -503 -147 -97 -51 -239 -192 -301
-299 -26 -45 -55 -89 -66 -99 -18 -16 -22 -14 -90 59 -80 86 -136 119 -284
164 -82 25 -103 27 -235 26 -119 -1 -156 -5 -208 -22 -111 -38 -222 -122 -222
-169 0 -24 -51 -79 -203 -218 -57 -52 -67 -67 -68 -95 0 -32 -1 -33 -10 -10
l-10 25 -21 -21 c-23 -24 -36 -86 -37 -175 -1 -50 -4 -59 -28 -78 -16 -12 -59
-52 -98 -89 -38 -37 -118 -109 -177 -160 -185 -159 -201 -181 -199 -280 0 -43
9 -72 41 -135 22 -45 40 -88 40 -97 0 -9 9 -24 19 -33 17 -16 32 -17 133 -10
134 10 160 8 254 -12 109 -24 169 -23 254 3 95 29 99 29 69 -3 -35 -38 -107
-71 -182 -85 -54 -10 -83 -9 -173 5 -60 9 -131 16 -159 16 -60 0 -125 -17
-125 -32 0 -21 84 -91 139 -117 49 -23 69 -26 156 -26 118 0 182 17 368 100
137 61 281 99 460 121 137 17 190 33 268 80 150 90 229 244 245 480 4 52 11
94 16 94 5 0 23 -30 41 -67 27 -58 32 -79 32 -143 -1 -227 -121 -426 -315
-519 -114 -56 -302 -96 -495 -106 -60 -4 -130 -9 -154 -13 -42 -7 -44 -9 -58
-57 -8 -27 -76 -187 -150 -355 -141 -317 -212 -513 -237 -653 -20 -111 -30
-273 -21 -349 l8 -63 26 75 c15 41 49 109 76 150 54 84 106 152 112 146 2 -2
-3 -29 -11 -60 -21 -80 -31 -377 -17 -500 31 -272 154 -592 338 -878 107 -168
136 -202 163 -195 11 3 20 1 20 -3 0 -10 182 -277 250 -368 51 -68 227 -252
241 -252 9 0 13 28 29 205 17 181 44 300 117 515 64 191 126 324 213 465 24
39 59 99 78 135 19 36 41 72 47 80 7 8 22 31 33 50 11 19 60 105 109 191 200
350 254 494 273 736 13 160 2 295 -39 498 -16 77 -32 165 -35 195 -45 373
-110 674 -207 962 -58 171 -151 406 -175 442 -19 30 -13 33 72 46 95 13 165
35 260 81 157 77 310 243 393 427 45 100 59 166 67 310 l7 122 -39 -1 c-21 -1
-73 -5 -115 -10z m-147 -200 c-124 -21 -280 -89 -385 -169 -57 -43 -116 -117
-187 -235 -11 -18 -11 -18 -5 -1 14 47 106 177 166 238 88 88 179 134 319 163
36 7 83 13 105 13 37 0 36 -1 -13 -9z m-1106 -508 c42 -19 124 -86 124 -102 0
-4 -21 2 -47 14 -77 35 -178 30 -270 -12 -60 -28 -81 -45 -140 -114 -37 -44
-82 -96 -100 -116 l-32 -36 14 57 c18 79 45 157 56 164 5 3 20 22 33 43 57 89
263 147 362 102z m-78 -226 c18 -38 15 -59 -12 -84 -31 -29 -73 -25 -99 11
-36 49 -4 96 69 97 24 1 33 -5 42 -24z m-733 -75 c12 0 26 5 33 12 29 29 9
-31 -32 -100 -58 -96 -181 -225 -229 -241 -19 -6 -143 -89 -155 -104 -9 -11
-1 -16 38 -26 66 -17 137 -79 146 -128 12 -61 -32 -120 -125 -167 -28 -15 -35
-15 -42 -4 -13 20 -12 22 27 43 71 38 95 104 54 145 -18 18 -22 18 -61 5 -57
-21 -212 -20 -229 0 -16 19 5 53 57 92 54 41 393 387 426 435 15 23 27 47 27
55 0 12 4 11 22 -1 12 -9 32 -16 43 -16z m835 -7 c0 -36 -46 -98 -89 -122 -71
-39 -211 -26 -211 21 0 17 4 19 33 11 51 -13 129 -8 165 11 18 9 45 35 60 56
29 43 42 50 42 23z m546 -1435 c-3 -24 -5 -48 -5 -54 -1 -6 -13 -24 -28 -39
-16 -16 -22 -25 -15 -21 6 4 12 2 12 -3 0 -6 -7 -11 -15 -11 -9 0 -19 -8 -23
-17 -10 -25 -73 -133 -77 -133 -2 0 22 55 54 123 32 67 65 139 74 160 22 49
30 47 23 -5z m-306 -227 c-5 -11 -15 -23 -21 -27 -6 -3 -3 5 6 20 20 30 30 35
15 7z m11 -304 c-10 -9 -11 -8 -5 6 3 10 9 15 12 12 3 -3 0 -11 -7 -18z m-348
-252 c-3 -9 -8 -14 -10 -11 -3 3 -2 9 2 15 9 16 15 13 8 -4z"/>
<path d="M6532 6468 c-6 -18 -34 -60 -61 -94 l-49 -60 91 -95 c217 -225 382
-477 485 -739 33 -83 89 -299 102 -387 35 -248 21 -513 -41 -753 -109 -421
-343 -772 -724 -1087 -49 -40 -142 -93 -164 -93 -6 0 -12 19 -12 43 -1 23 -4
55 -8 70 l-6 28 -36 -48 c-21 -26 -62 -89 -92 -139 -60 -99 -213 -326 -260
-387 -16 -21 -27 -40 -24 -43 21 -22 336 121 553 250 301 179 501 366 679 635
269 409 370 723 382 1186 8 295 -21 499 -107 760 -66 199 -224 482 -375 670
-85 107 -290 315 -309 315 -7 0 -17 -15 -24 -32z"/>
<path d="M3524 6339 c-8 -17 -41 -59 -73 -93 -122 -131 -285 -395 -364 -586
-106 -259 -151 -457 -167 -740 -27 -461 92 -899 357 -1314 204 -318 520 -601
884 -790 80 -42 149 -76 153 -76 3 0 -1 15 -11 33 -9 17 -42 99 -73 181 -30
82 -62 153 -70 157 -8 4 -27 10 -42 13 -44 10 -197 119 -299 214 -304 286
-522 650 -620 1039 -43 170 -52 263 -46 477 7 299 50 480 175 755 95 209 219
395 352 531 39 39 70 73 68 74 -2 1 -19 12 -38 24 -19 11 -60 46 -90 76 -30
31 -60 56 -67 56 -7 0 -20 -14 -29 -31z"/>
<path d="M7671 4919 c-17 -10 -37 -30 -43 -44 -10 -22 -8 -30 9 -53 11 -15 32
-34 46 -42 25 -14 30 -13 64 5 70 38 63 110 -14 141 -26 11 -34 10 -62 -7z"/>
<path d="M2495 4905 c-49 -48 -15 -135 53 -135 31 0 92 54 92 82 0 9 -12 30
-26 47 -33 40 -83 43 -119 6z"/>
<path d="M3541 4874 c-38 -32 -40 -62 -5 -103 33 -40 66 -40 105 -2 36 36 37
73 4 106 -31 32 -66 32 -104 -1z"/>
<path d="M6361 4874 c-18 -15 -31 -35 -31 -49 0 -33 55 -85 90 -85 36 0 90 44
90 74 0 26 -33 60 -73 75 -39 15 -41 14 -76 -15z"/>
<path d="M6646 4879 c-56 -44 -54 -92 6 -129 44 -26 50 -26 87 12 40 41 40 72
0 109 -37 34 -57 36 -93 8z"/>
<path d="M3807 4862 c-24 -26 -21 -55 8 -86 36 -39 75 -34 93 14 10 27 -1 69
-21 82 -22 14 -64 8 -80 -10z"/>
</g>
</svg>
